<svg xmlns="http://www.w3.org/2000/svg" xmlns:xlink="http://www.w3.org/1999/xlink" width="400" zoomAndPan="magnify" viewBox="0 0 300 37.5" height="50" preserveAspectRatio="xMidYMid meet" version="1.0"><defs><g/></defs><g fill="#ffffff" fill-opacity="1"><g transform="translate(46.333194, 26.003235)"><g><path d="M 15.625 0 L 14.09375 -5.046875 L 6.375 -5.046875 L 4.84375 0 L 0 0 L 7.46875 -21.25 L 12.953125 -21.25 L 20.46875 0 Z M 13.015625 -8.796875 L 11.484375 -13.734375 C 11.390625 -14.054688 11.257812 -14.472656 11.09375 -14.984375 C 10.9375 -15.503906 10.773438 -16.03125 10.609375 -16.5625 C 10.453125 -17.101562 10.328125 -17.570312 10.234375 -17.96875 C 10.140625 -17.570312 10.007812 -17.082031 9.84375 -16.5 C 9.675781 -15.914062 9.515625 -15.363281 9.359375 -14.84375 C 9.203125 -14.320312 9.085938 -13.953125 9.015625 -13.734375 L 7.5 -8.796875 Z M 13.015625 -8.796875 "/></g></g></g><g fill="#ffffff" fill-opacity="1"><g transform="translate(66.795513, 26.003235)"><g><path d="M 11.515625 -16.5 C 13.242188 -16.5 14.632812 -16.023438 15.6875 -15.078125 C 16.738281 -14.140625 17.265625 -12.632812 17.265625 -10.5625 L 17.265625 0 L 12.84375 0 L 12.84375 -9.453125 C 12.84375 -10.609375 12.628906 -11.476562 12.203125 -12.0625 C 11.785156 -12.65625 11.128906 -12.953125 10.234375 -12.953125 C 8.878906 -12.953125 7.957031 -12.492188 7.46875 -11.578125 C 6.976562 -10.660156 6.734375 -9.335938 6.734375 -7.609375 L 6.734375 0 L 2.3125 0 L 2.3125 -16.1875 L 5.6875 -16.1875 L 6.28125 -14.125 L 6.53125 -14.125 C 6.875 -14.675781 7.300781 -15.125 7.8125 -15.46875 C 8.332031 -15.820312 8.910156 -16.082031 9.546875 -16.25 C 10.179688 -16.414062 10.835938 -16.5 11.515625 -16.5 Z M 11.515625 -16.5 "/></g></g></g><g fill="#ffffff" fill-opacity="1"><g transform="translate(86.287573, 26.003235)"><g><path d="M 7.046875 7.125 C 4.785156 7.125 3.0625 6.726562 1.875 5.9375 C 0.6875 5.15625 0.09375 4.054688 0.09375 2.640625 C 0.09375 1.660156 0.394531 0.84375 1 0.1875 C 1.601562 -0.46875 2.492188 -0.9375 3.671875 -1.21875 C 3.222656 -1.40625 2.828125 -1.71875 2.484375 -2.15625 C 2.148438 -2.601562 1.984375 -3.070312 1.984375 -3.5625 C 1.984375 -4.175781 2.160156 -4.6875 2.515625 -5.09375 C 2.878906 -5.507812 3.394531 -5.914062 4.0625 -6.3125 C 3.21875 -6.675781 2.546875 -7.265625 2.046875 -8.078125 C 1.546875 -8.890625 1.296875 -9.847656 1.296875 -10.953125 C 1.296875 -12.128906 1.554688 -13.128906 2.078125 -13.953125 C 2.597656 -14.773438 3.351562 -15.40625 4.34375 -15.84375 C 5.332031 -16.28125 6.535156 -16.5 7.953125 -16.5 C 8.253906 -16.5 8.601562 -16.476562 9 -16.4375 C 9.394531 -16.394531 9.753906 -16.347656 10.078125 -16.296875 C 10.410156 -16.253906 10.640625 -16.21875 10.765625 -16.1875 L 16.40625 -16.1875 L 16.40625 -13.9375 L 13.875 -13.296875 C 14.101562 -12.929688 14.273438 -12.546875 14.390625 -12.140625 C 14.503906 -11.742188 14.5625 -11.316406 14.5625 -10.859375 C 14.5625 -9.117188 13.957031 -7.765625 12.75 -6.796875 C 11.539062 -5.828125 9.859375 -5.34375 7.703125 -5.34375 C 7.191406 -5.375 6.707031 -5.410156 6.25 -5.453125 C 6.03125 -5.285156 5.863281 -5.101562 5.75 -4.90625 C 5.632812 -4.71875 5.578125 -4.515625 5.578125 -4.296875 C 5.578125 -4.085938 5.664062 -3.910156 5.84375 -3.765625 C 6.019531 -3.628906 6.289062 -3.523438 6.65625 -3.453125 C 7.019531 -3.378906 7.46875 -3.34375 8 -3.34375 L 10.765625 -3.34375 C 12.535156 -3.34375 13.882812 -2.960938 14.8125 -2.203125 C 15.75 -1.441406 16.21875 -0.320312 16.21875 1.15625 C 16.21875 3.050781 15.425781 4.519531 13.84375 5.5625 C 12.269531 6.601562 10.003906 7.125 7.046875 7.125 Z M 7.234375 4.25 C 8.285156 4.25 9.191406 4.148438 9.953125 3.953125 C 10.710938 3.753906 11.296875 3.472656 11.703125 3.109375 C 12.109375 2.742188 12.3125 2.3125 12.3125 1.8125 C 12.3125 1.40625 12.191406 1.082031 11.953125 0.84375 C 11.710938 0.613281 11.351562 0.445312 10.875 0.34375 C 10.40625 0.25 9.796875 0.203125 9.046875 0.203125 L 6.765625 0.203125 C 6.222656 0.203125 5.734375 0.285156 5.296875 0.453125 C 4.867188 0.628906 4.53125 0.875 4.28125 1.1875 C 4.03125 1.507812 3.90625 1.875 3.90625 2.28125 C 3.90625 2.894531 4.195312 3.375 4.78125 3.71875 C 5.363281 4.070312 6.179688 4.25 7.234375 4.25 Z M 7.953125 -8.03125 C 8.773438 -8.03125 9.378906 -8.285156 9.765625 -8.796875 C 10.160156 -9.316406 10.359375 -10.015625 10.359375 -10.890625 C 10.359375 -11.867188 10.15625 -12.597656 9.75 -13.078125 C 9.351562 -13.566406 8.753906 -13.8125 7.953125 -13.8125 C 7.140625 -13.8125 6.53125 -13.566406 6.125 -13.078125 C 5.71875 -12.597656 5.515625 -11.867188 5.515625 -10.890625 C 5.515625 -10.015625 5.710938 -9.316406 6.109375 -8.796875 C 6.515625 -8.285156 7.128906 -8.03125 7.953125 -8.03125 Z M 7.953125 -8.03125 "/></g></g></g><g fill="#ffffff" fill-opacity="1"><g transform="translate(103.042635, 26.003235)"><g><path d="M 7.046875 7.125 C 4.785156 7.125 3.0625 6.726562 1.875 5.9375 C 0.6875 5.15625 0.09375 4.054688 0.09375 2.640625 C 0.09375 1.660156 0.394531 0.84375 1 0.1875 C 1.601562 -0.46875 2.492188 -0.9375 3.671875 -1.21875 C 3.222656 -1.40625 2.828125 -1.71875 2.484375 -2.15625 C 2.148438 -2.601562 1.984375 -3.070312 1.984375 -3.5625 C 1.984375 -4.175781 2.160156 -4.6875 2.515625 -5.09375 C 2.878906 -5.507812 3.394531 -5.914062 4.0625 -6.3125 C 3.21875 -6.675781 2.546875 -7.265625 2.046875 -8.078125 C 1.546875 -8.890625 1.296875 -9.847656 1.296875 -10.953125 C 1.296875 -12.128906 1.554688 -13.128906 2.078125 -13.953125 C 2.597656 -14.773438 3.351562 -15.40625 4.34375 -15.84375 C 5.332031 -16.28125 6.535156 -16.5 7.953125 -16.5 C 8.253906 -16.5 8.601562 -16.476562 9 -16.4375 C 9.394531 -16.394531 9.753906 -16.347656 10.078125 -16.296875 C 10.410156 -16.253906 10.640625 -16.21875 10.765625 -16.1875 L 16.40625 -16.1875 L 16.40625 -13.9375 L 13.875 -13.296875 C 14.101562 -12.929688 14.273438 -12.546875 14.390625 -12.140625 C 14.503906 -11.742188 14.5625 -11.316406 14.5625 -10.859375 C 14.5625 -9.117188 13.957031 -7.765625 12.75 -6.796875 C 11.539062 -5.828125 9.859375 -5.34375 7.703125 -5.34375 C 7.191406 -5.375 6.707031 -5.410156 6.25 -5.453125 C 6.03125 -5.285156 5.863281 -5.101562 5.75 -4.90625 C 5.632812 -4.71875 5.578125 -4.515625 5.578125 -4.296875 C 5.578125 -4.085938 5.664062 -3.910156 5.84375 -3.765625 C 6.019531 -3.628906 6.289062 -3.523438 6.65625 -3.453125 C 7.019531 -3.378906 7.46875 -3.34375 8 -3.34375 L 10.765625 -3.34375 C 12.535156 -3.34375 13.882812 -2.960938 14.8125 -2.203125 C 15.75 -1.441406 16.21875 -0.320312 16.21875 1.15625 C 16.21875 3.050781 15.425781 4.519531 13.84375 5.5625 C 12.269531 6.601562 10.003906 7.125 7.046875 7.125 Z M 7.234375 4.25 C 8.285156 4.25 9.191406 4.148438 9.953125 3.953125 C 10.710938 3.753906 11.296875 3.472656 11.703125 3.109375 C 12.109375 2.742188 12.3125 2.3125 12.3125 1.8125 C 12.3125 1.40625 12.191406 1.082031 11.953125 0.84375 C 11.710938 0.613281 11.351562 0.445312 10.875 0.34375 C 10.40625 0.25 9.796875 0.203125 9.046875 0.203125 L 6.765625 0.203125 C 6.222656 0.203125 5.734375 0.285156 5.296875 0.453125 C 4.867188 0.628906 4.53125 0.875 4.28125 1.1875 C 4.03125 1.507812 3.90625 1.875 3.90625 2.28125 C 3.90625 2.894531 4.195312 3.375 4.78125 3.71875 C 5.363281 4.070312 6.179688 4.25 7.234375 4.25 Z M 7.953125 -8.03125 C 8.773438 -8.03125 9.378906 -8.285156 9.765625 -8.796875 C 10.160156 -9.316406 10.359375 -10.015625 10.359375 -10.890625 C 10.359375 -11.867188 10.15625 -12.597656 9.75 -13.078125 C 9.351562 -13.566406 8.753906 -13.8125 7.953125 -13.8125 C 7.140625 -13.8125 6.53125 -13.566406 6.125 -13.078125 C 5.71875 -12.597656 5.515625 -11.867188 5.515625 -10.890625 C 5.515625 -10.015625 5.710938 -9.316406 6.109375 -8.796875 C 6.515625 -8.285156 7.128906 -8.03125 7.953125 -8.03125 Z M 7.953125 -8.03125 "/></g></g></g><g fill="#ffffff" fill-opacity="1"><g transform="translate(119.797697, 26.003235)"><g><path d="M 8.953125 -16.515625 C 11.117188 -16.515625 12.78125 -16.039062 13.9375 -15.09375 C 15.101562 -14.15625 15.6875 -12.71875 15.6875 -10.78125 L 15.6875 0 L 12.59375 0 L 11.75 -2.203125 L 11.625 -2.203125 C 11.164062 -1.617188 10.691406 -1.144531 10.203125 -0.78125 C 9.722656 -0.414062 9.171875 -0.144531 8.546875 0.03125 C 7.921875 0.207031 7.15625 0.296875 6.25 0.296875 C 5.300781 0.296875 4.445312 0.113281 3.6875 -0.25 C 2.925781 -0.625 2.328125 -1.1875 1.890625 -1.9375 C 1.460938 -2.695312 1.25 -3.664062 1.25 -4.84375 C 1.25 -6.5625 1.847656 -7.828125 3.046875 -8.640625 C 4.253906 -9.453125 6.066406 -9.898438 8.484375 -9.984375 L 11.296875 -10.078125 L 11.296875 -10.78125 C 11.296875 -11.632812 11.070312 -12.257812 10.625 -12.65625 C 10.1875 -13.050781 9.570312 -13.25 8.78125 -13.25 C 8 -13.25 7.226562 -13.132812 6.46875 -12.90625 C 5.71875 -12.6875 4.96875 -12.410156 4.21875 -12.078125 L 2.75 -15.0625 C 3.613281 -15.507812 4.578125 -15.863281 5.640625 -16.125 C 6.703125 -16.382812 7.804688 -16.515625 8.953125 -16.515625 Z M 11.296875 -7.5 L 9.59375 -7.4375 C 8.15625 -7.40625 7.160156 -7.148438 6.609375 -6.671875 C 6.054688 -6.203125 5.78125 -5.582031 5.78125 -4.8125 C 5.78125 -4.132812 5.976562 -3.648438 6.375 -3.359375 C 6.769531 -3.078125 7.285156 -2.9375 7.921875 -2.9375 C 8.867188 -2.9375 9.664062 -3.21875 10.3125 -3.78125 C 10.96875 -4.34375 11.296875 -5.140625 11.296875 -6.171875 Z M 11.296875 -7.5 "/></g></g></g><g fill="#ffffff" fill-opacity="1"><g transform="translate(137.711277, 26.003235)"><g/></g></g><g fill="#ffffff" fill-opacity="1"><g transform="translate(145.402857, 26.003235)"><g><path d="M 14.84375 -5.640625 C 14.84375 -4.378906 14.53125 -3.304688 13.90625 -2.421875 C 13.28125 -1.535156 12.40625 -0.859375 11.28125 -0.390625 C 10.164062 0.0664062 8.851562 0.296875 7.34375 0.296875 C 6.539062 0.296875 5.78125 0.253906 5.0625 0.171875 C 4.351562 0.0976562 3.695312 -0.0078125 3.09375 -0.15625 C 2.5 -0.300781 1.972656 -0.476562 1.515625 -0.6875 L 1.515625 -3.0625 C 2.242188 -2.757812 3.128906 -2.476562 4.171875 -2.21875 C 5.210938 -1.96875 6.300781 -1.84375 7.4375 -1.84375 C 8.5 -1.84375 9.394531 -1.984375 10.125 -2.265625 C 10.863281 -2.546875 11.421875 -2.953125 11.796875 -3.484375 C 12.179688 -4.023438 12.375 -4.675781 12.375 -5.4375 C 12.375 -6.15625 12.210938 -6.757812 11.890625 -7.25 C 11.578125 -7.738281 11.050781 -8.179688 10.3125 -8.578125 C 9.570312 -8.984375 8.566406 -9.410156 7.296875 -9.859375 C 6.398438 -10.179688 5.609375 -10.53125 4.921875 -10.90625 C 4.234375 -11.289062 3.65625 -11.722656 3.1875 -12.203125 C 2.726562 -12.691406 2.378906 -13.253906 2.140625 -13.890625 C 1.910156 -14.523438 1.796875 -15.253906 1.796875 -16.078125 C 1.796875 -17.203125 2.082031 -18.164062 2.65625 -18.96875 C 3.226562 -19.78125 4.023438 -20.398438 5.046875 -20.828125 C 6.066406 -21.253906 7.238281 -21.46875 8.5625 -21.46875 C 9.6875 -21.46875 10.726562 -21.363281 11.6875 -21.15625 C 12.65625 -20.945312 13.535156 -20.660156 14.328125 -20.296875 L 13.5625 -18.1875 C 12.800781 -18.507812 11.992188 -18.773438 11.140625 -18.984375 C 10.285156 -19.191406 9.40625 -19.296875 8.5 -19.296875 C 7.59375 -19.296875 6.828125 -19.160156 6.203125 -18.890625 C 5.578125 -18.628906 5.097656 -18.257812 4.765625 -17.78125 C 4.441406 -17.300781 4.28125 -16.726562 4.28125 -16.0625 C 4.28125 -15.3125 4.4375 -14.691406 4.75 -14.203125 C 5.070312 -13.710938 5.578125 -13.273438 6.265625 -12.890625 C 6.953125 -12.515625 7.863281 -12.117188 9 -11.703125 C 10.25 -11.242188 11.304688 -10.757812 12.171875 -10.25 C 13.046875 -9.75 13.707031 -9.132812 14.15625 -8.40625 C 14.613281 -7.675781 14.84375 -6.753906 14.84375 -5.640625 Z M 14.84375 -5.640625 "/></g></g></g><g fill="#ffffff" fill-opacity="1"><g transform="translate(161.665549, 26.003235)"><g><path d="M 8.46875 -16.125 C 10.363281 -16.125 11.769531 -15.695312 12.6875 -14.84375 C 13.601562 -14 14.0625 -12.644531 14.0625 -10.78125 L 14.0625 0 L 12.3125 0 L 11.84375 -2.34375 L 11.734375 -2.34375 C 11.285156 -1.769531 10.816406 -1.285156 10.328125 -0.890625 C 9.847656 -0.492188 9.289062 -0.195312 8.65625 0 C 8.03125 0.195312 7.257812 0.296875 6.34375 0.296875 C 5.375 0.296875 4.515625 0.128906 3.765625 -0.203125 C 3.023438 -0.546875 2.4375 -1.0625 2 -1.75 C 1.570312 -2.4375 1.359375 -3.304688 1.359375 -4.359375 C 1.359375 -5.941406 1.984375 -7.15625 3.234375 -8 C 4.492188 -8.851562 6.410156 -9.316406 8.984375 -9.390625 L 11.71875 -9.515625 L 11.71875 -10.484375 C 11.71875 -11.859375 11.421875 -12.816406 10.828125 -13.359375 C 10.242188 -13.910156 9.414062 -14.1875 8.34375 -14.1875 C 7.507812 -14.1875 6.71875 -14.066406 5.96875 -13.828125 C 5.21875 -13.585938 4.503906 -13.300781 3.828125 -12.96875 L 3.078125 -14.796875 C 3.796875 -15.160156 4.617188 -15.472656 5.546875 -15.734375 C 6.472656 -15.992188 7.445312 -16.125 8.46875 -16.125 Z M 11.6875 -7.8125 L 9.265625 -7.71875 C 7.285156 -7.644531 5.890625 -7.320312 5.078125 -6.75 C 4.265625 -6.175781 3.859375 -5.367188 3.859375 -4.328125 C 3.859375 -3.421875 4.132812 -2.75 4.6875 -2.3125 C 5.238281 -1.882812 5.96875 -1.671875 6.875 -1.671875 C 8.289062 -1.671875 9.445312 -2.0625 10.34375 -2.84375 C 11.238281 -3.625 11.6875 -4.796875 11.6875 -6.359375 Z M 11.6875 -7.8125 "/></g></g></g><g fill="#ffffff" fill-opacity="1"><g transform="translate(178.145463, 26.003235)"><g><path d="M 9.984375 -16.15625 C 11.960938 -16.15625 13.539062 -15.472656 14.71875 -14.109375 C 15.90625 -12.753906 16.5 -10.710938 16.5 -7.984375 C 16.5 -6.171875 16.226562 -4.648438 15.6875 -3.421875 C 15.144531 -2.203125 14.382812 -1.273438 13.40625 -0.640625 C 12.425781 -0.015625 11.269531 0.296875 9.9375 0.296875 C 9.09375 0.296875 8.351562 0.1875 7.71875 -0.03125 C 7.082031 -0.257812 6.535156 -0.5625 6.078125 -0.9375 C 5.628906 -1.3125 5.253906 -1.722656 4.953125 -2.171875 L 4.78125 -2.171875 C 4.8125 -1.796875 4.847656 -1.34375 4.890625 -0.8125 C 4.929688 -0.28125 4.953125 0.179688 4.953125 0.578125 L 4.953125 7.09375 L 2.53125 7.09375 L 2.53125 -15.875 L 4.515625 -15.875 L 4.84375 -13.53125 L 4.953125 -13.53125 C 5.265625 -14.007812 5.640625 -14.445312 6.078125 -14.84375 C 6.523438 -15.25 7.066406 -15.566406 7.703125 -15.796875 C 8.347656 -16.035156 9.109375 -16.15625 9.984375 -16.15625 Z M 9.578125 -14.140625 C 8.472656 -14.140625 7.582031 -13.925781 6.90625 -13.5 C 6.238281 -13.070312 5.75 -12.4375 5.4375 -11.59375 C 5.132812 -10.75 4.972656 -9.6875 4.953125 -8.40625 L 4.953125 -7.953125 C 4.953125 -6.609375 5.097656 -5.472656 5.390625 -4.546875 C 5.679688 -3.617188 6.164062 -2.910156 6.84375 -2.421875 C 7.53125 -1.941406 8.445312 -1.703125 9.59375 -1.703125 C 10.582031 -1.703125 11.40625 -1.96875 12.0625 -2.5 C 12.71875 -3.03125 13.207031 -3.769531 13.53125 -4.71875 C 13.851562 -5.675781 14.015625 -6.769531 14.015625 -8 C 14.015625 -9.875 13.648438 -11.363281 12.921875 -12.46875 C 12.191406 -13.582031 11.078125 -14.140625 9.578125 -14.140625 Z M 9.578125 -14.140625 "/></g></g></g><g fill="#ffffff" fill-opacity="1"><g transform="translate(196.290746, 26.003235)"><g><path d="M 15.640625 -15.875 L 15.640625 0 L 13.671875 0 L 13.328125 -2.234375 L 13.1875 -2.234375 C 12.863281 -1.679688 12.441406 -1.21875 11.921875 -0.84375 C 11.398438 -0.46875 10.8125 -0.1875 10.15625 0 C 9.507812 0.195312 8.816406 0.296875 8.078125 0.296875 C 6.828125 0.296875 5.773438 0.09375 4.921875 -0.3125 C 4.078125 -0.71875 3.4375 -1.34375 3 -2.1875 C 2.570312 -3.039062 2.359375 -4.132812 2.359375 -5.46875 L 2.359375 -15.875 L 4.796875 -15.875 L 4.796875 -5.640625 C 4.796875 -4.316406 5.09375 -3.328125 5.6875 -2.671875 C 6.289062 -2.023438 7.203125 -1.703125 8.421875 -1.703125 C 9.597656 -1.703125 10.535156 -1.925781 11.234375 -2.375 C 11.941406 -2.820312 12.445312 -3.476562 12.75 -4.34375 C 13.0625 -5.207031 13.21875 -6.265625 13.21875 -7.515625 L 13.21875 -15.875 Z M 15.640625 -15.875 "/></g></g></g><g fill="#ffffff" fill-opacity="1"><g transform="translate(214.479474, 26.003235)"><g><path d="M 7.65625 -1.6875 C 8.050781 -1.6875 8.457031 -1.71875 8.875 -1.78125 C 9.289062 -1.84375 9.628906 -1.925781 9.890625 -2.03125 L 9.890625 -0.15625 C 9.609375 -0.03125 9.21875 0.0703125 8.71875 0.15625 C 8.226562 0.25 7.742188 0.296875 7.265625 0.296875 C 6.429688 0.296875 5.671875 0.148438 4.984375 -0.140625 C 4.296875 -0.441406 3.742188 -0.941406 3.328125 -1.640625 C 2.921875 -2.347656 2.71875 -3.328125 2.71875 -4.578125 L 2.71875 -13.984375 L 0.46875 -13.984375 L 0.46875 -15.15625 L 2.734375 -16.109375 L 3.6875 -19.546875 L 5.140625 -19.546875 L 5.140625 -15.875 L 9.78125 -15.875 L 9.78125 -13.984375 L 5.140625 -13.984375 L 5.140625 -4.640625 C 5.140625 -3.648438 5.367188 -2.910156 5.828125 -2.421875 C 6.285156 -1.929688 6.894531 -1.6875 7.65625 -1.6875 Z M 7.65625 -1.6875 "/></g></g></g><g fill="#ffffff" fill-opacity="1"><g transform="translate(225.050948, 26.003235)"><g><path d="M 9.75 -16.15625 C 10.0625 -16.15625 10.390625 -16.140625 10.734375 -16.109375 C 11.085938 -16.078125 11.398438 -16.03125 11.671875 -15.96875 L 11.375 -13.734375 C 11.101562 -13.804688 10.804688 -13.859375 10.484375 -13.890625 C 10.171875 -13.929688 9.875 -13.953125 9.59375 -13.953125 C 8.957031 -13.953125 8.359375 -13.820312 7.796875 -13.5625 C 7.234375 -13.3125 6.738281 -12.945312 6.3125 -12.46875 C 5.882812 -12 5.550781 -11.425781 5.3125 -10.75 C 5.070312 -10.082031 4.953125 -9.335938 4.953125 -8.515625 L 4.953125 0 L 2.53125 0 L 2.53125 -15.875 L 4.53125 -15.875 L 4.796875 -12.953125 L 4.890625 -12.953125 C 5.222656 -13.535156 5.617188 -14.070312 6.078125 -14.5625 C 6.546875 -15.050781 7.082031 -15.4375 7.6875 -15.71875 C 8.300781 -16.007812 8.988281 -16.15625 9.75 -16.15625 Z M 9.75 -16.15625 "/></g></g></g><g fill="#ffffff" fill-opacity="1"><g transform="translate(237.171939, 26.003235)"><g><path d="M 8.46875 -16.125 C 10.363281 -16.125 11.769531 -15.695312 12.6875 -14.84375 C 13.601562 -14 14.0625 -12.644531 14.0625 -10.78125 L 14.0625 0 L 12.3125 0 L 11.84375 -2.34375 L 11.734375 -2.34375 C 11.285156 -1.769531 10.816406 -1.285156 10.328125 -0.890625 C 9.847656 -0.492188 9.289062 -0.195312 8.65625 0 C 8.03125 0.195312 7.257812 0.296875 6.34375 0.296875 C 5.375 0.296875 4.515625 0.128906 3.765625 -0.203125 C 3.023438 -0.546875 2.4375 -1.0625 2 -1.75 C 1.570312 -2.4375 1.359375 -3.304688 1.359375 -4.359375 C 1.359375 -5.941406 1.984375 -7.15625 3.234375 -8 C 4.492188 -8.851562 6.410156 -9.316406 8.984375 -9.390625 L 11.71875 -9.515625 L 11.71875 -10.484375 C 11.71875 -11.859375 11.421875 -12.816406 10.828125 -13.359375 C 10.242188 -13.910156 9.414062 -14.1875 8.34375 -14.1875 C 7.507812 -14.1875 6.71875 -14.066406 5.96875 -13.828125 C 5.21875 -13.585938 4.503906 -13.300781 3.828125 -12.96875 L 3.078125 -14.796875 C 3.796875 -15.160156 4.617188 -15.472656 5.546875 -15.734375 C 6.472656 -15.992188 7.445312 -16.125 8.46875 -16.125 Z M 11.6875 -7.8125 L 9.265625 -7.71875 C 7.285156 -7.644531 5.890625 -7.320312 5.078125 -6.75 C 4.265625 -6.175781 3.859375 -5.367188 3.859375 -4.328125 C 3.859375 -3.421875 4.132812 -2.75 4.6875 -2.3125 C 5.238281 -1.882812 5.96875 -1.671875 6.875 -1.671875 C 8.289062 -1.671875 9.445312 -2.0625 10.34375 -2.84375 C 11.238281 -3.625 11.6875 -4.796875 11.6875 -6.359375 Z M 11.6875 -7.8125 "/></g></g></g></svg>